<svg xmlns="http://www.w3.org/2000/svg" viewBox="0 0 1200 720" width="1200" height="720" font-family="-apple-system,Segoe UI,Roboto,sans-serif">
<rect x="0.0" y="0.0" width="1200.0" height="720.0" rx="0" fill="#0c1018"/>
<text x="40" y="52" font-family="ui-monospace,Menlo,Consolas,monospace" font-size="26" font-weight="700"><tspan fill="#39d0d8">binlog</tspan><tspan fill="#dbe5f2">sum</tspan></text>
<rect x="206.0" y="34.0" width="56.0" height="24.0" rx="6" fill="none" stroke="#1e2a3d" stroke-width="1"/>
<text x="234.0" y="51.0" fill="#4a5670" font-family="ui-monospace,Menlo,Consolas,monospace" font-size="12" text-anchor="middle" font-weight="normal">v0.1.0</text>
<text x="1160.0" y="51.0" fill="#7d8aa3" font-family="ui-monospace,Menlo,Consolas,monospace" font-size="13" text-anchor="end" font-weight="normal">mysql-bin.000004.sql</text>
<line x1="40.0" y1="74.0" x2="1160.0" y2="74.0" stroke="#1e2a3d"/>
<rect x="40.0" y="96.0" width="178.3" height="72.0" rx="8" fill="#111724" stroke="#1e2a3d" stroke-width="1"/>
<text x="54.0" y="120.0" fill="#7d8aa3" font-family="-apple-system,Segoe UI,Roboto,sans-serif" font-size="10" text-anchor="start" font-weight="normal" letter-spacing="1">EVENTS</text>
<text x="54.0" y="146.0" fill="#dbe5f2" font-family="ui-monospace,Menlo,Consolas,monospace" font-size="16" text-anchor="start" font-weight="normal">6,551,319</text>
<rect x="228.3" y="96.0" width="178.3" height="72.0" rx="8" fill="#111724" stroke="#1e2a3d" stroke-width="1"/>
<text x="242.3" y="120.0" fill="#7d8aa3" font-family="-apple-system,Segoe UI,Roboto,sans-serif" font-size="10" text-anchor="start" font-weight="normal" letter-spacing="1">TRANSACTIONS</text>
<text x="242.3" y="146.0" fill="#dbe5f2" font-family="ui-monospace,Menlo,Consolas,monospace" font-size="16" text-anchor="start" font-weight="normal">595,574</text>
<rect x="416.7" y="96.0" width="178.3" height="72.0" rx="8" fill="#111724" stroke="#1e2a3d" stroke-width="1"/>
<text x="430.7" y="120.0" fill="#7d8aa3" font-family="-apple-system,Segoe UI,Roboto,sans-serif" font-size="10" text-anchor="start" font-weight="normal" letter-spacing="1">ROWS CHANGED</text>
<text x="430.7" y="146.0" fill="#dbe5f2" font-family="ui-monospace,Menlo,Consolas,monospace" font-size="16" text-anchor="start" font-weight="normal">2,382,296</text>
<rect x="605.0" y="96.0" width="178.3" height="72.0" rx="8" fill="#111724" stroke="#1e2a3d" stroke-width="1"/>
<text x="619.0" y="120.0" fill="#7d8aa3" font-family="-apple-system,Segoe UI,Roboto,sans-serif" font-size="10" text-anchor="start" font-weight="normal" letter-spacing="1">ROW-IMAGE SIZE</text>
<text x="619.0" y="146.0" fill="#dbe5f2" font-family="ui-monospace,Menlo,Consolas,monospace" font-size="16" text-anchor="start" font-weight="normal">936.0 MiB</text>
<rect x="793.3" y="96.0" width="178.3" height="72.0" rx="8" fill="#111724" stroke="#1e2a3d" stroke-width="1"/>
<text x="807.3" y="120.0" fill="#7d8aa3" font-family="-apple-system,Segoe UI,Roboto,sans-serif" font-size="10" text-anchor="start" font-weight="normal" letter-spacing="1">UPDATES</text>
<text x="807.3" y="146.0" fill="#dbe5f2" font-family="ui-monospace,Menlo,Consolas,monospace" font-size="16" text-anchor="start" font-weight="normal">1,191,148</text>
<rect x="981.7" y="96.0" width="178.3" height="72.0" rx="8" fill="#111724" stroke="#1e2a3d" stroke-width="1"/>
<text x="995.7" y="120.0" fill="#7d8aa3" font-family="-apple-system,Segoe UI,Roboto,sans-serif" font-size="10" text-anchor="start" font-weight="normal" letter-spacing="1">INSERTS</text>
<text x="995.7" y="146.0" fill="#dbe5f2" font-family="ui-monospace,Menlo,Consolas,monospace" font-size="16" text-anchor="start" font-weight="normal">595,574</text>
<rect x="40.0" y="192.0" width="360.0" height="210.0" rx="12" fill="#111724" stroke="#1e2a3d" stroke-width="1"/>
<text x="58.0" y="220.0" fill="#7d8aa3" font-family="ui-monospace,Menlo,Consolas,monospace" font-size="12" text-anchor="start" font-weight="normal" letter-spacing="1">EVENTS BY TYPE</text>
<text x="58.0" y="252.0" fill="#7d8aa3" font-family="ui-monospace,Menlo,Consolas,monospace" font-size="12" text-anchor="start" font-weight="normal">insert</text>
<rect x="132.0" y="245.0" width="176.0" height="8.0" rx="3" fill="#0e1420"/>
<rect x="132.0" y="245.0" width="88.0" height="8.0" rx="3" fill="#5fd38d"/>
<text x="382.0" y="252.0" fill="#dbe5f2" font-family="ui-monospace,Menlo,Consolas,monospace" font-size="12" text-anchor="end" font-weight="normal">595,574</text>
<text x="58.0" y="278.0" fill="#7d8aa3" font-family="ui-monospace,Menlo,Consolas,monospace" font-size="12" text-anchor="start" font-weight="normal">update</text>
<rect x="132.0" y="271.0" width="176.0" height="8.0" rx="3" fill="#0e1420"/>
<rect x="132.0" y="271.0" width="176.0" height="8.0" rx="3" fill="#f0c454"/>
<text x="382.0" y="278.0" fill="#dbe5f2" font-family="ui-monospace,Menlo,Consolas,monospace" font-size="12" text-anchor="end" font-weight="normal">1,191,148</text>
<text x="58.0" y="304.0" fill="#7d8aa3" font-family="ui-monospace,Menlo,Consolas,monospace" font-size="12" text-anchor="start" font-weight="normal">delete</text>
<rect x="132.0" y="297.0" width="176.0" height="8.0" rx="3" fill="#0e1420"/>
<rect x="132.0" y="297.0" width="88.0" height="8.0" rx="3" fill="#f0697a"/>
<text x="382.0" y="304.0" fill="#dbe5f2" font-family="ui-monospace,Menlo,Consolas,monospace" font-size="12" text-anchor="end" font-weight="normal">595,574</text>
<text x="58.0" y="330.0" fill="#7d8aa3" font-family="ui-monospace,Menlo,Consolas,monospace" font-size="12" text-anchor="start" font-weight="normal">create</text>
<rect x="132.0" y="323.0" width="176.0" height="8.0" rx="3" fill="#0e1420"/>
<rect x="132.0" y="323.0" width="3.0" height="8.0" rx="3" fill="#9d7bff"/>
<text x="382.0" y="330.0" fill="#dbe5f2" font-family="ui-monospace,Menlo,Consolas,monospace" font-size="12" text-anchor="end" font-weight="normal">2</text>
<text x="58.0" y="356.0" fill="#7d8aa3" font-family="ui-monospace,Menlo,Consolas,monospace" font-size="12" text-anchor="start" font-weight="normal">alter</text>
<rect x="132.0" y="349.0" width="176.0" height="8.0" rx="3" fill="#0e1420"/>
<rect x="132.0" y="349.0" width="3.0" height="8.0" rx="3" fill="#9d7bff"/>
<text x="382.0" y="356.0" fill="#dbe5f2" font-family="ui-monospace,Menlo,Consolas,monospace" font-size="12" text-anchor="end" font-weight="normal">2</text>
<text x="58.0" y="382.0" fill="#7d8aa3" font-family="ui-monospace,Menlo,Consolas,monospace" font-size="12" text-anchor="start" font-weight="normal">drop</text>
<rect x="132.0" y="375.0" width="176.0" height="8.0" rx="3" fill="#0e1420"/>
<rect x="132.0" y="375.0" width="3.0" height="8.0" rx="3" fill="#9d7bff"/>
<text x="382.0" y="382.0" fill="#dbe5f2" font-family="ui-monospace,Menlo,Consolas,monospace" font-size="12" text-anchor="end" font-weight="normal">1</text>
<rect x="420.0" y="192.0" width="740.0" height="210.0" rx="12" fill="#111724" stroke="#1e2a3d" stroke-width="1"/>
<text x="438.0" y="220.0" fill="#7d8aa3" font-family="ui-monospace,Menlo,Consolas,monospace" font-size="12" text-anchor="start" font-weight="normal" letter-spacing="1">MOST-UPDATED TABLES</text>
<text x="438.0" y="242.0" fill="#7d8aa3" font-family="ui-monospace,Menlo,Consolas,monospace" font-size="11" text-anchor="start" font-weight="normal">table</text>
<text x="860.0" y="242.0" fill="#7d8aa3" font-family="ui-monospace,Menlo,Consolas,monospace" font-size="11" text-anchor="end" font-weight="normal">ins</text>
<text x="940.0" y="242.0" fill="#7d8aa3" font-family="ui-monospace,Menlo,Consolas,monospace" font-size="11" text-anchor="end" font-weight="normal">upd</text>
<text x="1020.0" y="242.0" fill="#7d8aa3" font-family="ui-monospace,Menlo,Consolas,monospace" font-size="11" text-anchor="end" font-weight="normal">del</text>
<text x="1100.0" y="242.0" fill="#7d8aa3" font-family="ui-monospace,Menlo,Consolas,monospace" font-size="11" text-anchor="end" font-weight="normal">ddl</text>
<line x1="432.0" y1="250.0" x2="1148.0" y2="250.0" stroke="#1e2a3d"/>
<text x="438.0" y="272.0" fill="#dbe5f2" font-family="ui-monospace,Menlo,Consolas,monospace" font-size="12" text-anchor="start" font-weight="normal">sbtest.sbtest5</text>
<text x="860.0" y="272.0" fill="#5fd38d" font-family="ui-monospace,Menlo,Consolas,monospace" font-size="12" text-anchor="end" font-weight="normal">480,000</text>
<text x="940.0" y="272.0" fill="#f0c454" font-family="ui-monospace,Menlo,Consolas,monospace" font-size="12" text-anchor="end" font-weight="normal">1,120,000</text>
<text x="1020.0" y="272.0" fill="#f0697a" font-family="ui-monospace,Menlo,Consolas,monospace" font-size="12" text-anchor="end" font-weight="normal">2,500</text>
<text x="1100.0" y="272.0" fill="#4a5670" font-family="ui-monospace,Menlo,Consolas,monospace" font-size="12" text-anchor="end" font-weight="normal">1</text>
<text x="438.0" y="302.0" fill="#dbe5f2" font-family="ui-monospace,Menlo,Consolas,monospace" font-size="12" text-anchor="start" font-weight="normal">sbtest.sbtest4</text>
<text x="860.0" y="302.0" fill="#5fd38d" font-family="ui-monospace,Menlo,Consolas,monospace" font-size="12" text-anchor="end" font-weight="normal">420,000</text>
<text x="940.0" y="302.0" fill="#f0c454" font-family="ui-monospace,Menlo,Consolas,monospace" font-size="12" text-anchor="end" font-weight="normal">160,000</text>
<text x="1020.0" y="302.0" fill="#f0697a" font-family="ui-monospace,Menlo,Consolas,monospace" font-size="12" text-anchor="end" font-weight="normal">2,500</text>
<text x="1100.0" y="302.0" fill="#4a5670" font-family="ui-monospace,Menlo,Consolas,monospace" font-size="12" text-anchor="end" font-weight="normal">1</text>
<text x="438.0" y="332.0" fill="#dbe5f2" font-family="ui-monospace,Menlo,Consolas,monospace" font-size="12" text-anchor="start" font-weight="normal">analytics_warehouse.fact_user_events_2026</text>
<text x="860.0" y="332.0" fill="#5fd38d" font-family="ui-monospace,Menlo,Consolas,monospace" font-size="12" text-anchor="end" font-weight="normal">18,775</text>
<text x="940.0" y="332.0" fill="#f0c454" font-family="ui-monospace,Menlo,Consolas,monospace" font-size="12" text-anchor="end" font-weight="normal">3,771</text>
<text x="1020.0" y="332.0" fill="#f0697a" font-family="ui-monospace,Menlo,Consolas,monospace" font-size="12" text-anchor="end" font-weight="normal">120</text>
<text x="438.0" y="362.0" fill="#dbe5f2" font-family="ui-monospace,Menlo,Consolas,monospace" font-size="12" text-anchor="start" font-weight="normal">db1.orders</text>
<text x="860.0" y="362.0" fill="#5fd38d" font-family="ui-monospace,Menlo,Consolas,monospace" font-size="12" text-anchor="end" font-weight="normal">9,100</text>
<text x="940.0" y="362.0" fill="#f0c454" font-family="ui-monospace,Menlo,Consolas,monospace" font-size="12" text-anchor="end" font-weight="normal">4,200</text>
<text x="1020.0" y="362.0" fill="#f0697a" font-family="ui-monospace,Menlo,Consolas,monospace" font-size="12" text-anchor="end" font-weight="normal">80</text>
<rect x="40.0" y="422.0" width="1120.0" height="258.0" rx="12" fill="#111724" stroke="#1e2a3d" stroke-width="1"/>
<text x="58.0" y="450.0" fill="#7d8aa3" font-family="ui-monospace,Menlo,Consolas,monospace" font-size="12" text-anchor="start" font-weight="normal" letter-spacing="1">WRITES OVER TIME</text>
<rect x="220.0" y="436.0" width="96.0" height="22.0" rx="6" fill="none" stroke="#1e2a3d" stroke-width="1"/>
<text x="244.0" y="451.0" fill="#7d8aa3" font-family="ui-monospace,Menlo,Consolas,monospace" font-size="11" text-anchor="middle" font-weight="normal">rows</text>
<rect x="268.0" y="436.0" width="48.0" height="22.0" rx="6" fill="#0e1420"/>
<text x="292.0" y="451.0" fill="#9d7bff" font-family="ui-monospace,Menlo,Consolas,monospace" font-size="11" text-anchor="middle" font-weight="normal">size</text>
<text x="1142.0" y="451.0" fill="#39d0d8" font-family="ui-monospace,Menlo,Consolas,monospace" font-size="12" text-anchor="end" font-weight="normal">Download snapshot</text>
<line x1="132.0" y1="646.0" x2="1140.0" y2="646.0" stroke="#1e2a3d"/>
<line x1="132.0" y1="646.0" x2="1140.0" y2="646.0" stroke="#1a2436"/>
<text x="122.0" y="650.0" fill="#4a5670" font-family="ui-monospace,Menlo,Consolas,monospace" font-size="11" text-anchor="end" font-weight="normal">0 B</text>
<line x1="132.0" y1="603.5" x2="1140.0" y2="603.5" stroke="#1a2436"/>
<text x="122.0" y="607.5" fill="#4a5670" font-family="ui-monospace,Menlo,Consolas,monospace" font-size="11" text-anchor="end" font-weight="normal">58.2 MiB</text>
<line x1="132.0" y1="561.0" x2="1140.0" y2="561.0" stroke="#1a2436"/>
<text x="122.0" y="565.0" fill="#4a5670" font-family="ui-monospace,Menlo,Consolas,monospace" font-size="11" text-anchor="end" font-weight="normal">116.5 MiB</text>
<line x1="132.0" y1="518.5" x2="1140.0" y2="518.5" stroke="#1a2436"/>
<text x="122.0" y="522.5" fill="#4a5670" font-family="ui-monospace,Menlo,Consolas,monospace" font-size="11" text-anchor="end" font-weight="normal">174.7 MiB</text>
<line x1="132.0" y1="476.0" x2="1140.0" y2="476.0" stroke="#1a2436"/>
<text x="122.0" y="480.0" fill="#4a5670" font-family="ui-monospace,Menlo,Consolas,monospace" font-size="11" text-anchor="end" font-weight="normal">233.0 MiB</text>
<rect x="132.5" y="639.4" width="14.2" height="6.6" rx="1" fill="#9d7bff"/>
<rect x="148.2" y="642.9" width="14.2" height="3.1" rx="1" fill="#9d7bff"/>
<rect x="164.0" y="632.7" width="14.2" height="13.3" rx="1" fill="#9d7bff"/>
<rect x="179.8" y="644.5" width="14.2" height="1.5" rx="1" fill="#9d7bff"/>
<rect x="195.5" y="635.1" width="14.2" height="10.9" rx="1" fill="#9d7bff"/>
<rect x="211.2" y="638.5" width="14.2" height="7.5" rx="1" fill="#9d7bff"/>
<rect x="227.0" y="644.8" width="14.2" height="1.2" rx="1" fill="#9d7bff"/>
<rect x="242.8" y="635.6" width="14.2" height="10.4" rx="1" fill="#9d7bff"/>
<rect x="258.5" y="645.2" width="14.2" height="0.8" rx="1" fill="#9d7bff"/>
<rect x="274.2" y="637.2" width="14.2" height="8.8" rx="1" fill="#9d7bff"/>
<rect x="290.0" y="644.6" width="14.2" height="1.4" rx="1" fill="#9d7bff"/>
<rect x="305.8" y="644.1" width="14.2" height="1.9" rx="1" fill="#9d7bff"/>
<rect x="321.5" y="637.3" width="14.2" height="8.7" rx="1" fill="#9d7bff"/>
<rect x="337.2" y="629.1" width="14.2" height="16.9" rx="1" fill="#9d7bff"/>
<rect x="353.0" y="643.5" width="14.2" height="2.5" rx="1" fill="#9d7bff"/>
<rect x="368.8" y="641.4" width="14.2" height="4.6" rx="1" fill="#9d7bff"/>
<rect x="384.5" y="633.2" width="14.2" height="12.8" rx="1" fill="#9d7bff"/>
<rect x="400.2" y="626.7" width="14.2" height="19.3" rx="1" fill="#9d7bff"/>
<rect x="416.0" y="634.2" width="14.2" height="11.8" rx="1" fill="#9d7bff"/>
<rect x="431.8" y="637.9" width="14.2" height="8.1" rx="1" fill="#9d7bff"/>
<rect x="447.5" y="626.1" width="14.2" height="19.9" rx="1" fill="#9d7bff"/>
<rect x="463.2" y="645.0" width="14.2" height="1.0" rx="1" fill="#9d7bff"/>
<rect x="479.0" y="628.5" width="14.2" height="17.5" rx="1" fill="#9d7bff"/>
<rect x="494.8" y="640.1" width="14.2" height="5.9" rx="1" fill="#9d7bff"/>
<rect x="510.5" y="643.1" width="14.2" height="2.9" rx="1" fill="#9d7bff"/>
<rect x="526.2" y="643.6" width="14.2" height="2.4" rx="1" fill="#9d7bff"/>
<rect x="542.0" y="639.7" width="14.2" height="6.3" rx="1" fill="#9d7bff"/>
<rect x="557.8" y="629.4" width="14.2" height="16.6" rx="1" fill="#9d7bff"/>
<rect x="573.5" y="642.3" width="14.2" height="3.7" rx="1" fill="#9d7bff"/>
<rect x="589.2" y="634.1" width="14.2" height="11.9" rx="1" fill="#9d7bff"/>
<rect x="605.0" y="574.6" width="14.2" height="71.4" rx="1" fill="#9d7bff"/>
<rect x="620.8" y="638.4" width="14.2" height="7.6" rx="1" fill="#9d7bff"/>
<rect x="636.5" y="634.8" width="14.2" height="11.2" rx="1" fill="#9d7bff"/>
<rect x="652.2" y="644.7" width="14.2" height="1.3" rx="1" fill="#9d7bff"/>
<rect x="668.0" y="644.8" width="14.2" height="1.2" rx="1" fill="#9d7bff"/>
<rect x="683.8" y="641.8" width="14.2" height="4.2" rx="1" fill="#9d7bff"/>
<rect x="699.5" y="632.1" width="14.2" height="13.9" rx="1" fill="#9d7bff"/>
<rect x="715.2" y="637.3" width="14.2" height="8.7" rx="1" fill="#9d7bff"/>
<rect x="731.0" y="639.6" width="14.2" height="6.4" rx="1" fill="#9d7bff"/>
<rect x="746.8" y="634.1" width="14.2" height="11.9" rx="1" fill="#9d7bff"/>
<rect x="762.5" y="636.8" width="14.2" height="9.2" rx="1" fill="#9d7bff"/>
<rect x="778.2" y="639.9" width="14.2" height="6.1" rx="1" fill="#9d7bff"/>
<rect x="794.0" y="629.8" width="14.2" height="16.2" rx="1" fill="#9d7bff"/>
<rect x="809.8" y="631.7" width="14.2" height="14.3" rx="1" fill="#9d7bff"/>
<rect x="825.5" y="595.0" width="14.2" height="51.0" rx="1" fill="#9d7bff"/>
<rect x="841.2" y="634.3" width="14.2" height="11.7" rx="1" fill="#9d7bff"/>
<rect x="857.0" y="635.3" width="14.2" height="10.7" rx="1" fill="#9d7bff"/>
<rect x="872.8" y="637.5" width="14.2" height="8.5" rx="1" fill="#9d7bff"/>
<rect x="888.5" y="637.5" width="14.2" height="8.5" rx="1" fill="#9d7bff"/>
<rect x="904.2" y="640.1" width="14.2" height="5.9" rx="1" fill="#9d7bff"/>
<rect x="920.0" y="626.0" width="14.2" height="20.0" rx="1" fill="#9d7bff"/>
<rect x="935.8" y="643.6" width="14.2" height="2.4" rx="1" fill="#9d7bff"/>
<rect x="951.5" y="637.5" width="14.2" height="8.5" rx="1" fill="#9d7bff"/>
<rect x="967.2" y="630.6" width="14.2" height="15.4" rx="1" fill="#9d7bff"/>
<rect x="983.0" y="642.9" width="14.2" height="3.1" rx="1" fill="#9d7bff"/>
<rect x="998.8" y="636.0" width="14.2" height="10.0" rx="1" fill="#9d7bff"/>
<rect x="1014.5" y="645.2" width="14.2" height="0.8" rx="1" fill="#9d7bff"/>
<rect x="1030.2" y="632.4" width="14.2" height="13.6" rx="1" fill="#9d7bff"/>
<rect x="1046.0" y="476.0" width="14.2" height="170.0" rx="1" fill="#9d7bff"/>
<rect x="1061.8" y="634.3" width="14.2" height="11.7" rx="1" fill="#9d7bff"/>
<rect x="1077.5" y="628.1" width="14.2" height="17.9" rx="1" fill="#9d7bff"/>
<rect x="1093.2" y="639.6" width="14.2" height="6.4" rx="1" fill="#9d7bff"/>
<rect x="1109.0" y="631.8" width="14.2" height="14.2" rx="1" fill="#9d7bff"/>
<rect x="1124.8" y="633.9" width="14.2" height="12.1" rx="1" fill="#9d7bff"/>
<text x="132.0" y="668.0" fill="#4a5670" font-family="ui-monospace,Menlo,Consolas,monospace" font-size="11" text-anchor="start" font-weight="normal">10:01:45</text>
<text x="1140.0" y="668.0" fill="#4a5670" font-family="ui-monospace,Menlo,Consolas,monospace" font-size="11" text-anchor="end" font-weight="normal">10:04:53</text>
</svg>
